{"accessors":[{"bufferView":1,"componentType":5126,"count":310,"max":[0.5063040852546692,0.2883613407611847,1.6800189018249512],"min":[-0.3440989553928375,-0.39825311303138733,0.008931794203817844],"type":"VEC3"},{"bufferView":1,"byteOffset":3720,"componentType":5126,"count":310,"max":[0.9999998807907104,0.8781445622444153,1],"min":[-0.9974512457847595,-0.8781434297561646,-0.9977285265922546],"type":"VEC3"},{"bufferView":0,"componentType":5125,"count":474,"type":"SCALAR"},{"bufferView":1,"byteOffset":7440,"componentType":5126,"count":224,"max":[0.7119924426078796,0.45289814472198486,1.772140622138977],"min":[-0.2477661520242691,-0.5067598223686218,1.6160904169082642],"type":"VEC3"},{"bufferView":1,"byteOffset":10128,"componentType":5126,"count":224,"max":[0.5758239030838013,0.581112802028656,0.9830846786499023],"min":[-0.569754958152771,-0.561410665512085,0.8007262349128723],"type":"VEC3"},{"bufferView":0,"byteOffset":1896,"componentType":5125,"count":288,"type":"SCALAR"},{"bufferView":1,"byteOffset":12816,"componentType":5126,"count":60,"max":[0.33854490518569946,0.06600764393806458,1.7236511707305908],"min":[0.1335669308900833,-0.12893594801425934,1.6390178203582764],"type":"VEC3"},{"bufferView":1,"byteOffset":13536,"componentType":5126,"count":60,"max":[0.936569094657898,0.8907336592674255,0.9207867383956909],"min":[-0.9365686774253845,-0.8907335996627808,-0.931692898273468],"type":"VEC3"},{"bufferView":0,"byteOffset":3048,"componentType":5125,"count":60,"type":"SCALAR"}],"asset":{"extras":{"author":"Maf'j Alvarez (https://sketchfab.com/blujay)","license":"CC-BY-4.0 (http://creativecommons.org/licenses/by/4.0/)","source":"https://sketchfab.com/3d-models/margarita-flower-58ce34c65642408cb92eab784af2bd6c","title":"Margarita flower"},"generator":"Sketchfab-12.67.0","version":"2.0"},"bufferViews":[{"buffer":0,"byteLength":3288,"name":"floatBufferViews","target":34963},{"buffer":0,"byteLength":14256,"byteOffset":3288,"byteStride":12,"name":"floatBufferViews","target":34962}],"buffers":[{"byteLength":17544,"uri":"data:application/octet-stream;base64,"}],"materials":[{"doubleSided":true,"name":"green","pbrMetallicRoughness":{"baseColorFactor":[0.187821,0.258183,0.0423114,1],"metallicFactor":0,"roughnessFactor":0.8239417257461427}},{"doubleSided":true,"name":"white","pbrMetallicRoughness":{"baseColorFactor":[0.953172,0.944243,0.991102,1],"metallicFactor":0,"roughnessFactor":0.8239417257461427}},{"doubleSided":true,"name":"yellow","pbrMetallicRoughness":{"baseColorFactor":[0.955973,0.450786,0.000303526,1],"metallicFactor":0}}],"meshes":[{"name":"margarita flower_green_0","primitives":[{"attributes":{"NORMAL":1,"POSITION":0},"indices":2,"material":0,"mode":4}]},{"name":"margarita flower_white_0","primitives":[{"attributes":{"NORMAL":4,"POSITION":3},"indices":5,"material":1,"mode":4}]},{"name":"margarita flower_yellow_0","primitives":[{"attributes":{"NORMAL":7,"POSITION":6},"indices":8,"material":2,"mode":4}]}],"nodes":[{"children":[1],"matrix":[1,0,0,0,0,2.220446049250313e-16,-1,0,0,1,2.220446049250313e-16,0,0,0,0,1],"name":"Sketchfab_model"},{"children":[2],"matrix":[1,0,0,0,0,0,1,0,0,-1,0,0,0,0,0,1],"name":"70a2c3421ef44078bd1af9c61ce435f6.fbx"},{"children":[3],"name":"RootNode"},{"children":[4,5,6],"matrix":[1,0,0,0,0,-1.6292067939183141e-7,-0.9999999999999868,0,0,0.9999999999999868,-1.6292067939183141e-7,0,0,0,0,1],"name":"margarita flower"},{"mesh":0,"name":"margarita flower_green_0"},{"mesh":1,"name":"margarita flower_white_0"},{"mesh":2,"name":"margarita flower_yellow_0"}],"scene":0,"scenes":[{"name":"Sketchfab_Scene","nodes":[0]}]}